<mxfile host="Electron" agent="Mozilla/5.0 (Windows NT 10.0; Win64; x64) AppleWebKit/537.36 (KHTML, like Gecko) draw.io/26.0.9 Chrome/128.0.6613.186 Electron/32.2.5 Safari/537.36" version="26.0.9" pages="2">
  <diagram name="Backlog" id="ibpSCjqeiJIwmJ1oxMrk">
    <mxGraphModel dx="1036" dy="654" grid="1" gridSize="10" guides="1" tooltips="1" connect="1" arrows="1" fold="1" page="1" pageScale="1" pageWidth="827" pageHeight="1169" math="0" shadow="0">
      <root>
        <mxCell id="0" />
        <mxCell id="1" parent="0" />
        <mxCell id="7Kc3XWsI4NXQ4NdzzWup-1" value="&lt;h1 style=&quot;margin-top: 0px;&quot;&gt;Historia 1&lt;/h1&gt;&lt;p&gt;El usuario tiene que conectarse a la red.&lt;br&gt;&lt;/p&gt;" style="text;html=1;whiteSpace=wrap;overflow=hidden;rounded=0;spacingLeft=5;spacingTop=5;spacing=5;spacingBottom=5;spacingRight=5;fillColor=default;strokeColor=default;" parent="1" vertex="1">
          <mxGeometry x="40" y="157" width="180" height="120" as="geometry" />
        </mxCell>
        <mxCell id="7Kc3XWsI4NXQ4NdzzWup-7" value="" style="group" parent="1" connectable="0" vertex="1">
          <mxGeometry x="40" y="30" width="100" height="40" as="geometry" />
        </mxCell>
        <mxCell id="7Kc3XWsI4NXQ4NdzzWup-3" value="" style="verticalLabelPosition=bottom;shadow=0;dashed=0;align=center;html=1;verticalAlign=top;strokeWidth=1;shape=mxgraph.mockup.containers.userFemale;strokeColor=#666666;strokeColor2=#008cff;" parent="7Kc3XWsI4NXQ4NdzzWup-7" vertex="1">
          <mxGeometry width="40" height="40" as="geometry" />
        </mxCell>
        <mxCell id="7Kc3XWsI4NXQ4NdzzWup-4" value="&lt;div&gt;Cliente 1&lt;br&gt;&lt;/div&gt;" style="text;html=1;align=left;verticalAlign=middle;whiteSpace=wrap;rounded=0;" parent="7Kc3XWsI4NXQ4NdzzWup-7" vertex="1">
          <mxGeometry x="40" y="5" width="60" height="30" as="geometry" />
        </mxCell>
        <mxCell id="7Kc3XWsI4NXQ4NdzzWup-8" value="" style="group" parent="1" connectable="0" vertex="1">
          <mxGeometry x="40" y="90" width="100" height="40" as="geometry" />
        </mxCell>
        <mxCell id="7Kc3XWsI4NXQ4NdzzWup-2" value="" style="verticalLabelPosition=bottom;shadow=0;dashed=0;align=center;html=1;verticalAlign=top;strokeWidth=1;shape=mxgraph.mockup.containers.userMale;strokeColor=none;strokeColor2=#008cff;" parent="7Kc3XWsI4NXQ4NdzzWup-8" vertex="1">
          <mxGeometry width="40" height="40" as="geometry" />
        </mxCell>
        <mxCell id="7Kc3XWsI4NXQ4NdzzWup-5" value="&lt;div&gt;Cliente 2&lt;br&gt;&lt;/div&gt;" style="text;html=1;align=left;verticalAlign=middle;whiteSpace=wrap;rounded=0;" parent="7Kc3XWsI4NXQ4NdzzWup-8" vertex="1">
          <mxGeometry x="40" y="5" width="60" height="30" as="geometry" />
        </mxCell>
        <mxCell id="7Kc3XWsI4NXQ4NdzzWup-9" value="&lt;h1 style=&quot;margin-top: 0px;&quot;&gt;Historia 2&lt;br&gt;&lt;/h1&gt;&lt;p&gt;El usuario tiene que ver otros usuarios conectados.&lt;br&gt;&lt;/p&gt;" style="text;html=1;whiteSpace=wrap;overflow=hidden;rounded=0;spacingLeft=5;spacingTop=5;spacing=5;spacingBottom=5;spacingRight=5;fillColor=default;strokeColor=default;" parent="1" vertex="1">
          <mxGeometry x="40" y="290" width="180" height="120" as="geometry" />
        </mxCell>
        <mxCell id="o4K7ytaoeIAk3HAydhIs-1" value="&lt;h1 style=&quot;margin-top: 0px;&quot;&gt;Historia 3&lt;br&gt;&lt;/h1&gt;&lt;p&gt;El usuario tiene que poder enviar mensajes de texto al chat general.&lt;br&gt;&lt;/p&gt;" style="text;html=1;whiteSpace=wrap;overflow=hidden;rounded=0;spacingLeft=5;spacingTop=5;spacing=5;spacingBottom=5;spacingRight=5;fillColor=default;strokeColor=default;" parent="1" vertex="1">
          <mxGeometry x="40" y="420" width="180" height="120" as="geometry" />
        </mxCell>
        <mxCell id="o4K7ytaoeIAk3HAydhIs-2" value="&lt;h1 style=&quot;margin-top: 0px;&quot;&gt;Historia 4&lt;br&gt;&lt;/h1&gt;&lt;p&gt;El usuario tiene que poder ver los mensajes del chat general y quien los ha enviado.&lt;br&gt;&lt;/p&gt;" style="text;html=1;whiteSpace=wrap;overflow=hidden;rounded=0;spacingLeft=5;spacingTop=5;spacing=5;spacingBottom=5;spacingRight=5;fillColor=default;strokeColor=default;" parent="1" vertex="1">
          <mxGeometry x="240" y="157" width="180" height="120" as="geometry" />
        </mxCell>
        <mxCell id="o4K7ytaoeIAk3HAydhIs-3" value="&lt;h1 style=&quot;margin-top: 0px;&quot;&gt;Historia 5&lt;br&gt;&lt;/h1&gt;&lt;p&gt;El usuario tiene que poder realizar chats privados con cualquier usuario conectado.&lt;br&gt;&lt;/p&gt;" style="text;html=1;whiteSpace=wrap;overflow=hidden;rounded=0;spacingLeft=5;spacingTop=5;spacing=5;spacingBottom=5;spacingRight=5;fillColor=default;strokeColor=default;" parent="1" vertex="1">
          <mxGeometry x="240" y="290" width="180" height="120" as="geometry" />
        </mxCell>
        <mxCell id="o4K7ytaoeIAk3HAydhIs-4" value="&lt;h1 style=&quot;margin-top: 0px;&quot;&gt;Historia 6&lt;br&gt;&lt;/h1&gt;&lt;p&gt;El usuario tiene que poder realizar varios chats privados al mismo tiempo.&lt;br&gt;&lt;/p&gt;" style="text;html=1;whiteSpace=wrap;overflow=hidden;rounded=0;spacingLeft=5;spacingTop=5;spacing=5;spacingBottom=5;spacingRight=5;fillColor=default;strokeColor=default;" parent="1" vertex="1">
          <mxGeometry x="240" y="420" width="180" height="120" as="geometry" />
        </mxCell>
        <mxCell id="o4K7ytaoeIAk3HAydhIs-5" value="&lt;h1 style=&quot;margin-top: 0px;&quot;&gt;Historia 7&lt;br&gt;&lt;/h1&gt;&lt;p&gt;El usuario tiene que poder enviar ficheros en los chats privados.&lt;br&gt;&lt;/p&gt;" style="text;html=1;whiteSpace=wrap;overflow=hidden;rounded=0;spacingLeft=5;spacingTop=5;spacing=5;spacingBottom=5;spacingRight=5;fillColor=default;strokeColor=default;" parent="1" vertex="1">
          <mxGeometry x="440" y="157" width="180" height="120" as="geometry" />
        </mxCell>
        <mxCell id="BCOmAb-5vLjIJO0vkod6-1" value="&lt;h1 style=&quot;margin-top: 0px;&quot;&gt;Historia 8&lt;/h1&gt;&lt;p&gt;El usuario tiene obtener un informe de uso de la aplicación&lt;/p&gt;" style="text;html=1;whiteSpace=wrap;overflow=hidden;rounded=0;spacingLeft=5;spacingTop=5;spacing=5;spacingBottom=5;spacingRight=5;fillColor=default;strokeColor=default;" parent="1" vertex="1">
          <mxGeometry x="440" y="290" width="180" height="120" as="geometry" />
        </mxCell>
      </root>
    </mxGraphModel>
  </diagram>
  <diagram id="dIf-6CehBCPpUC1TRIqf" name="Sprintlog">
    <mxGraphModel dx="1480" dy="934" grid="1" gridSize="10" guides="1" tooltips="1" connect="1" arrows="1" fold="1" page="1" pageScale="1" pageWidth="827" pageHeight="1169" math="0" shadow="0">
      <root>
        <mxCell id="0" />
        <mxCell id="1" parent="0" />
        <mxCell id="BkJ7PJmJJigi_aSFNLdy-1" value="&lt;h1 style=&quot;margin-top: 0px;&quot;&gt;&lt;font style=&quot;font-size: 16px;&quot;&gt;Tarea 1.1&lt;/font&gt;&lt;/h1&gt;&lt;p&gt;Hacer una App en Java que envíe un paquete de Broadcast a la red con un nombre de usuario.&lt;/p&gt;" style="text;html=1;whiteSpace=wrap;overflow=hidden;rounded=0;spacingLeft=5;spacingTop=5;spacing=5;spacingBottom=5;spacingRight=5;fillColor=#60a917;strokeColor=#2D7600;fontColor=#ffffff;" parent="1" vertex="1">
          <mxGeometry x="620" y="420" width="180" height="120" as="geometry" />
        </mxCell>
        <mxCell id="BkJ7PJmJJigi_aSFNLdy-3" value="&lt;h1 style=&quot;margin-top: 0px;&quot;&gt;&lt;font style=&quot;font-size: 16px;&quot;&gt;Tarea 1.2&lt;/font&gt;&lt;/h1&gt;&lt;p&gt;Hacer un Wireframe para una app JavaFX que se conecte a la red (envíe el paquete de broadcast)&lt;/p&gt;" style="text;html=1;whiteSpace=wrap;overflow=hidden;rounded=0;spacingLeft=5;spacingTop=5;spacing=5;spacingBottom=5;spacingRight=5;fillColor=#1ba1e2;strokeColor=#006EAF;fontColor=#ffffff;" parent="1" vertex="1">
          <mxGeometry x="620" y="555" width="180" height="120" as="geometry" />
        </mxCell>
        <mxCell id="Iqgz6M43RzRNZjoqgLr8-1" value="" style="endArrow=none;html=1;rounded=0;" parent="1" edge="1">
          <mxGeometry width="50" height="50" relative="1" as="geometry">
            <mxPoint x="280" y="1110" as="sourcePoint" />
            <mxPoint x="281" y="158" as="targetPoint" />
          </mxGeometry>
        </mxCell>
        <mxCell id="Iqgz6M43RzRNZjoqgLr8-2" value="" style="endArrow=none;html=1;rounded=0;" parent="1" edge="1">
          <mxGeometry width="50" height="50" relative="1" as="geometry">
            <mxPoint x="560" y="970" as="sourcePoint" />
            <mxPoint x="561" y="150" as="targetPoint" />
          </mxGeometry>
        </mxCell>
        <mxCell id="Iqgz6M43RzRNZjoqgLr8-3" value="PENDIENTE" style="text;html=1;align=center;verticalAlign=middle;whiteSpace=wrap;rounded=0;fontStyle=1" parent="1" vertex="1">
          <mxGeometry x="90" y="130" width="100" height="30" as="geometry" />
        </mxCell>
        <mxCell id="Iqgz6M43RzRNZjoqgLr8-4" value="HACIENDO" style="text;html=1;align=center;verticalAlign=middle;whiteSpace=wrap;rounded=0;fontStyle=1" parent="1" vertex="1">
          <mxGeometry x="370" y="130" width="100" height="30" as="geometry" />
        </mxCell>
        <mxCell id="Iqgz6M43RzRNZjoqgLr8-5" value="TERMINADO" style="text;html=1;align=center;verticalAlign=middle;whiteSpace=wrap;rounded=0;fontStyle=1" parent="1" vertex="1">
          <mxGeometry x="650" y="130" width="100" height="30" as="geometry" />
        </mxCell>
        <mxCell id="Iqgz6M43RzRNZjoqgLr8-7" value="&lt;div align=&quot;left&quot;&gt;&lt;ul&gt;&lt;li&gt;Programado&lt;/li&gt;&lt;li&gt;Documentado&lt;/li&gt;&lt;li&gt;Probado&lt;/li&gt;&lt;li&gt;Integrado&lt;/li&gt;&lt;/ul&gt;&lt;/div&gt;" style="shape=callout;whiteSpace=wrap;html=1;perimeter=calloutPerimeter;align=left;position2=0.36;" parent="1" vertex="1">
          <mxGeometry x="680" y="30" width="140" height="100" as="geometry" />
        </mxCell>
        <mxCell id="LBgsxKphkuaAK5QPwy_K-2" value="Miguel" style="text;html=1;align=left;verticalAlign=middle;whiteSpace=wrap;rounded=0;fillColor=#1ba1e2;strokeColor=#006EAF;fontColor=#ffffff;" parent="1" vertex="1">
          <mxGeometry x="30" y="20" width="90" height="30" as="geometry" />
        </mxCell>
        <mxCell id="LBgsxKphkuaAK5QPwy_K-3" value="Daniel" style="text;html=1;align=left;verticalAlign=middle;whiteSpace=wrap;rounded=0;fillColor=#a20025;fontColor=#ffffff;strokeColor=#6F0000;" parent="1" vertex="1">
          <mxGeometry x="30" y="60" width="90" height="30" as="geometry" />
        </mxCell>
        <mxCell id="LBgsxKphkuaAK5QPwy_K-4" value="Ruben" style="text;html=1;align=left;verticalAlign=middle;whiteSpace=wrap;rounded=0;fillColor=#60a917;strokeColor=#2D7600;fontColor=#ffffff;" parent="1" vertex="1">
          <mxGeometry x="140" y="20" width="90" height="30" as="geometry" />
        </mxCell>
        <mxCell id="8auLFGelF9cu01JbPtdB-1" value="&lt;h1 style=&quot;margin-top: 0px;&quot;&gt;Historia 1&lt;/h1&gt;&lt;p&gt;El usuario tiene que conectarse a la red.&lt;br&gt;&lt;/p&gt;" style="text;html=1;whiteSpace=wrap;overflow=hidden;rounded=0;spacingLeft=5;spacingTop=5;spacing=5;spacingBottom=5;spacingRight=5;fillColor=#f5f5f5;strokeColor=#666666;fontColor=#333333;" parent="1" vertex="1">
          <mxGeometry x="620" y="285" width="180" height="120" as="geometry" />
        </mxCell>
        <mxCell id="BkJ7PJmJJigi_aSFNLdy-2" value="&lt;h1 style=&quot;margin-top: 0px;&quot;&gt;&lt;font style=&quot;font-size: 16px;&quot;&gt;Tarea 2.1&lt;/font&gt;&lt;/h1&gt;&lt;p&gt;Hacer una App en Java que escuche los paquetes de broadcast y muestre el nombre del usario.&lt;/p&gt;" style="text;html=1;whiteSpace=wrap;overflow=hidden;rounded=0;spacingLeft=5;spacingTop=5;spacing=5;spacingBottom=5;spacingRight=5;fillColor=#60a917;strokeColor=#2D7600;fontColor=#ffffff;" parent="1" vertex="1">
          <mxGeometry x="850" y="302" width="180" height="120" as="geometry" />
        </mxCell>
        <mxCell id="BkJ7PJmJJigi_aSFNLdy-4" value="&lt;h1 style=&quot;margin-top: 0px;&quot;&gt;&lt;font style=&quot;font-size: 16px;&quot;&gt;Tarea 2.2&lt;/font&gt;&lt;/h1&gt;&lt;p&gt;Hacer un Wireframe para una app JavaFX escuche la red y muestre los usuarios conectados&lt;/p&gt;" style="text;html=1;whiteSpace=wrap;overflow=hidden;rounded=0;spacingLeft=5;spacingTop=5;spacing=5;spacingBottom=5;spacingRight=5;fillColor=#1ba1e2;strokeColor=#006EAF;fontColor=#ffffff;" parent="1" vertex="1">
          <mxGeometry x="850" y="435" width="180" height="120" as="geometry" />
        </mxCell>
        <mxCell id="BkJ7PJmJJigi_aSFNLdy-5" value="&lt;h1 style=&quot;margin-top: 0px;&quot;&gt;&lt;font style=&quot;font-size: 16px;&quot;&gt;Tarea 3.1&lt;/font&gt;&lt;/h1&gt;&lt;p&gt;Unir ambos Wireframes (T1.2 y T.2.2) y hacer un Wireframe común.&lt;/p&gt;" style="text;html=1;whiteSpace=wrap;overflow=hidden;rounded=0;spacingLeft=5;spacingTop=5;spacing=5;spacingBottom=5;spacingRight=5;fillColor=#1ba1e2;strokeColor=#006EAF;fontColor=#ffffff;" parent="1" vertex="1">
          <mxGeometry x="1100" y="370" width="180" height="120" as="geometry" />
        </mxCell>
        <mxCell id="BkJ7PJmJJigi_aSFNLdy-6" value="&lt;h1 style=&quot;margin-top: 0px;&quot;&gt;&lt;font style=&quot;font-size: 16px;&quot;&gt;Tarea 3.2&lt;/font&gt;&lt;/h1&gt;&lt;p&gt;Hacer una app de JavaFX que haga H1 y H2&lt;/p&gt;" style="text;html=1;whiteSpace=wrap;overflow=hidden;rounded=0;spacingLeft=5;spacingTop=5;spacing=5;spacingBottom=5;spacingRight=5;fillColor=#60a917;strokeColor=#2D7600;fontColor=#ffffff;" parent="1" vertex="1">
          <mxGeometry x="1100" y="500" width="180" height="120" as="geometry" />
        </mxCell>
        <mxCell id="BkJ7PJmJJigi_aSFNLdy-7" value="&lt;h1 style=&quot;margin-top: 0px;&quot;&gt;&lt;font style=&quot;font-size: 16px;&quot;&gt;Tarea 3.3&lt;/font&gt;&lt;/h1&gt;&lt;p&gt;Documentar la app con Javadoc. Generar la documentación. Crea la portada en HTML para el Manual del Programador&lt;/p&gt;" style="text;html=1;whiteSpace=wrap;overflow=hidden;rounded=0;spacingLeft=5;spacingTop=5;spacing=5;spacingBottom=5;spacingRight=5;fillColor=#60a917;strokeColor=#2D7600;fontColor=#ffffff;" parent="1" vertex="1">
          <mxGeometry x="1100" y="640" width="180" height="145" as="geometry" />
        </mxCell>
        <mxCell id="BkJ7PJmJJigi_aSFNLdy-8" value="&lt;h1 style=&quot;margin-top: 0px;&quot;&gt;&lt;font style=&quot;font-size: 16px;&quot;&gt;Tarea 0.1&lt;/font&gt;&lt;/h1&gt;&lt;p&gt;Crear el repositorio en GitHub y compartirlo.&lt;/p&gt;" style="text;html=1;whiteSpace=wrap;overflow=hidden;rounded=0;spacingLeft=5;spacingTop=5;spacing=5;spacingBottom=5;spacingRight=5;fillColor=#1ba1e2;strokeColor=#006EAF;fontColor=#ffffff;" parent="1" vertex="1">
          <mxGeometry x="620" y="170" width="180" height="100" as="geometry" />
        </mxCell>
        <mxCell id="BkJ7PJmJJigi_aSFNLdy-9" value="&lt;h1 style=&quot;margin-top: 0px;&quot;&gt;&lt;font style=&quot;font-size: 16px;&quot;&gt;Tarea 3.4&lt;/font&gt;&lt;/h1&gt;&lt;p&gt;Aprovechar los Wireframes para iniciar el documento del Manual de Usuario&lt;/p&gt;" style="text;html=1;whiteSpace=wrap;overflow=hidden;rounded=0;spacingLeft=5;spacingTop=5;spacing=5;spacingBottom=5;spacingRight=5;fillColor=#60a917;strokeColor=#2D7600;fontColor=#ffffff;" parent="1" vertex="1">
          <mxGeometry x="340" y="182" width="180" height="120" as="geometry" />
        </mxCell>
        <mxCell id="BkJ7PJmJJigi_aSFNLdy-10" value="&lt;h1 style=&quot;margin-top: 0px;&quot;&gt;&lt;font style=&quot;font-size: 16px;&quot;&gt;Tarea Cierre S2&lt;/font&gt;&lt;/h1&gt;&lt;p&gt;Unir las ramas. Empaquetar la app. Realizar pruebas finales.&lt;/p&gt;" style="text;html=1;whiteSpace=wrap;overflow=hidden;rounded=0;spacingLeft=5;spacingTop=5;spacing=5;spacingBottom=5;spacingRight=5;fillColor=default;strokeColor=default;" parent="1" vertex="1">
          <mxGeometry x="30" y="980" width="180" height="120" as="geometry" />
        </mxCell>
        <mxCell id="8auLFGelF9cu01JbPtdB-2" value="&lt;h1 style=&quot;margin-top: 0px;&quot;&gt;Historia 2&lt;br&gt;&lt;/h1&gt;&lt;p&gt;El usuario tiene que ver otros usuarios conectados.&lt;br&gt;&lt;/p&gt;" style="text;html=1;whiteSpace=wrap;overflow=hidden;rounded=0;spacingLeft=5;spacingTop=5;spacing=5;spacingBottom=5;spacingRight=5;fillColor=#f5f5f5;strokeColor=#666666;fontColor=#333333;" parent="1" vertex="1">
          <mxGeometry x="850" y="170" width="180" height="120" as="geometry" />
        </mxCell>
        <mxCell id="KfshLL4tCHfJaPdZabus-1" value="&lt;h1 style=&quot;margin-top: 0px;&quot;&gt;Historia 3&lt;br&gt;&lt;/h1&gt;&lt;p&gt;El usuario tiene que poder enviar mensajes de texto al chat general.&lt;br&gt;&lt;/p&gt;" style="text;html=1;whiteSpace=wrap;overflow=hidden;rounded=0;spacingLeft=5;spacingTop=5;spacing=5;spacingBottom=5;spacingRight=5;fillColor=default;strokeColor=default;" parent="1" vertex="1">
          <mxGeometry x="1100" y="170" width="180" height="120" as="geometry" />
        </mxCell>
        <mxCell id="KfshLL4tCHfJaPdZabus-2" value="&lt;h1 style=&quot;margin-top: 0px;&quot;&gt;Historia 4&lt;br&gt;&lt;/h1&gt;&lt;p&gt;El usuario tiene que poder ver los mensajes del chat general y quien los ha enviado.&lt;br&gt;&lt;/p&gt;" style="text;html=1;whiteSpace=wrap;overflow=hidden;rounded=0;spacingLeft=5;spacingTop=5;spacing=5;spacingBottom=5;spacingRight=5;fillColor=default;strokeColor=default;" parent="1" vertex="1">
          <mxGeometry x="1350" y="180" width="180" height="120" as="geometry" />
        </mxCell>
        <mxCell id="KfshLL4tCHfJaPdZabus-3" value="&lt;h1 style=&quot;margin-top: 0px;&quot;&gt;&lt;font style=&quot;font-size: 16px;&quot;&gt;Tarea 4.1&lt;/font&gt;&lt;/h1&gt;&lt;p&gt;Crear el Wireframe y el Mockup&lt;/p&gt;" style="text;html=1;whiteSpace=wrap;overflow=hidden;rounded=0;spacingLeft=5;spacingTop=5;spacing=5;spacingBottom=5;spacingRight=5;fillColor=#60a917;strokeColor=#2D7600;fontColor=#ffffff;" parent="1" vertex="1">
          <mxGeometry x="1350" y="320" width="180" height="100" as="geometry" />
        </mxCell>
        <mxCell id="KfshLL4tCHfJaPdZabus-4" value="&lt;h1 style=&quot;margin-top: 0px;&quot;&gt;&lt;font style=&quot;font-size: 16px;&quot;&gt;Tarea 3.1&lt;/font&gt;&lt;/h1&gt;&lt;p&gt;Crear el Wireframe y el Mockup&lt;/p&gt;" style="text;html=1;whiteSpace=wrap;overflow=hidden;rounded=0;spacingLeft=5;spacingTop=5;spacing=5;spacingBottom=5;spacingRight=5;fillColor=#60a917;strokeColor=#2D7600;fontColor=#ffffff;" parent="1" vertex="1">
          <mxGeometry x="1100" y="285" width="180" height="100" as="geometry" />
        </mxCell>
        <mxCell id="KfshLL4tCHfJaPdZabus-5" value="&lt;h1 style=&quot;margin-top: 0px;&quot;&gt;&lt;font style=&quot;font-size: 16px;&quot;&gt;Tarea 4.2&lt;/font&gt;&lt;/h1&gt;&lt;p&gt;Programar en JavaFX&lt;/p&gt;" style="text;html=1;whiteSpace=wrap;overflow=hidden;rounded=0;spacingLeft=5;spacingTop=5;spacing=5;spacingBottom=5;spacingRight=5;fillColor=#60a917;strokeColor=#2D7600;fontColor=#ffffff;" parent="1" vertex="1">
          <mxGeometry x="1330" y="770" width="180" height="100" as="geometry" />
        </mxCell>
        <mxCell id="KfshLL4tCHfJaPdZabus-6" value="&lt;h1 style=&quot;margin-top: 0px;&quot;&gt;&lt;font style=&quot;font-size: 16px;&quot;&gt;Tarea 3.2&lt;/font&gt;&lt;/h1&gt;&lt;p&gt;Programar en JavaFX&lt;/p&gt;" style="text;html=1;whiteSpace=wrap;overflow=hidden;rounded=0;spacingLeft=5;spacingTop=5;spacing=5;spacingBottom=5;spacingRight=5;fillColor=#1ba1e2;strokeColor=#006EAF;fontColor=#ffffff;" parent="1" vertex="1">
          <mxGeometry x="1100" y="800" width="180" height="100" as="geometry" />
        </mxCell>
        <mxCell id="KfshLL4tCHfJaPdZabus-7" value="&lt;h1 style=&quot;margin-top: 0px;&quot;&gt;&lt;font style=&quot;font-size: 16px;&quot;&gt;Tarea 4.3&lt;/font&gt;&lt;/h1&gt;&lt;p&gt;Documentar el código&lt;/p&gt;" style="text;html=1;whiteSpace=wrap;overflow=hidden;rounded=0;spacingLeft=5;spacingTop=5;spacing=5;spacingBottom=5;spacingRight=5;fillColor=#1ba1e2;strokeColor=#006EAF;fontColor=#ffffff;" parent="1" vertex="1">
          <mxGeometry x="1330" y="890" width="180" height="100" as="geometry" />
        </mxCell>
        <mxCell id="KfshLL4tCHfJaPdZabus-8" value="&lt;h1 style=&quot;margin-top: 0px;&quot;&gt;&lt;font style=&quot;font-size: 16px;&quot;&gt;Tarea 3.3&lt;/font&gt;&lt;/h1&gt;&lt;p&gt;Documentar el código&lt;/p&gt;" style="text;html=1;whiteSpace=wrap;overflow=hidden;rounded=0;spacingLeft=5;spacingTop=5;spacing=5;spacingBottom=5;spacingRight=5;fillColor=#1ba1e2;strokeColor=#006EAF;fontColor=#ffffff;" parent="1" vertex="1">
          <mxGeometry x="1100" y="930" width="180" height="100" as="geometry" />
        </mxCell>
        <mxCell id="KfshLL4tCHfJaPdZabus-9" value="&lt;h1 style=&quot;margin-top: 0px;&quot;&gt;&lt;font style=&quot;font-size: 16px;&quot;&gt;Tarea 4.4&lt;/font&gt;&lt;/h1&gt;&lt;p&gt;Hacer Manual de Usuario&lt;/p&gt;" style="text;html=1;whiteSpace=wrap;overflow=hidden;rounded=0;spacingLeft=5;spacingTop=5;spacing=5;spacingBottom=5;spacingRight=5;fillColor=#a20025;strokeColor=#6F0000;fontColor=#ffffff;" parent="1" vertex="1">
          <mxGeometry x="340" y="370" width="180" height="100" as="geometry" />
        </mxCell>
        <mxCell id="KfshLL4tCHfJaPdZabus-10" value="&lt;h1 style=&quot;margin-top: 0px;&quot;&gt;&lt;font style=&quot;font-size: 16px;&quot;&gt;Tarea 3.4&lt;/font&gt;&lt;/h1&gt;&lt;p&gt;Hacer Manual de Usuario&lt;/p&gt;" style="text;html=1;whiteSpace=wrap;overflow=hidden;rounded=0;spacingLeft=5;spacingTop=5;spacing=5;spacingBottom=5;spacingRight=5;fillColor=#a20025;strokeColor=#6F0000;fontColor=#ffffff;" parent="1" vertex="1">
          <mxGeometry x="1100" y="1050" width="180" height="100" as="geometry" />
        </mxCell>
        <mxCell id="KfshLL4tCHfJaPdZabus-11" value="&lt;h1 style=&quot;margin-top: 0px;&quot;&gt;&lt;font style=&quot;font-size: 16px;&quot;&gt;Tarea 3.5&lt;/font&gt;&lt;/h1&gt;&lt;p&gt;Realizar pruebas unitarias.&lt;/p&gt;" style="text;html=1;whiteSpace=wrap;overflow=hidden;rounded=0;spacingLeft=5;spacingTop=5;spacing=5;spacingBottom=5;spacingRight=5;fillColor=#a20025;strokeColor=#6F0000;fontColor=#ffffff;" parent="1" vertex="1">
          <mxGeometry x="1100" y="1180" width="180" height="100" as="geometry" />
        </mxCell>
        <mxCell id="KfshLL4tCHfJaPdZabus-12" value="&lt;h1 style=&quot;margin-top: 0px;&quot;&gt;&lt;font style=&quot;font-size: 16px;&quot;&gt;Tarea 4.5&lt;/font&gt;&lt;/h1&gt;&lt;p&gt;Realizar pruebas unitarias.&lt;/p&gt;" style="text;html=1;whiteSpace=wrap;overflow=hidden;rounded=0;spacingLeft=5;spacingTop=5;spacing=5;spacingBottom=5;spacingRight=5;fillColor=#a20025;strokeColor=#6F0000;fontColor=#ffffff;" parent="1" vertex="1">
          <mxGeometry x="1330" y="1020" width="180" height="100" as="geometry" />
        </mxCell>
        <mxCell id="opxPqZAiheBvGZN8BQdN-4" value="Miguel" style="text;html=1;align=left;verticalAlign=middle;whiteSpace=wrap;rounded=0;fillColor=#1ba1e2;strokeColor=#006EAF;fontColor=#ffffff;" parent="1" vertex="1">
          <mxGeometry x="870" y="70" width="90" height="30" as="geometry" />
        </mxCell>
        <mxCell id="opxPqZAiheBvGZN8BQdN-5" value="Daniel" style="text;html=1;align=left;verticalAlign=middle;whiteSpace=wrap;rounded=0;fillColor=#a20025;fontColor=#ffffff;strokeColor=#6F0000;" parent="1" vertex="1">
          <mxGeometry x="870" y="110" width="90" height="30" as="geometry" />
        </mxCell>
        <mxCell id="opxPqZAiheBvGZN8BQdN-6" value="Ruben" style="text;html=1;align=left;verticalAlign=middle;whiteSpace=wrap;rounded=0;fillColor=#60a917;strokeColor=#2D7600;fontColor=#ffffff;" parent="1" vertex="1">
          <mxGeometry x="980" y="70" width="90" height="30" as="geometry" />
        </mxCell>
      </root>
    </mxGraphModel>
  </diagram>
</mxfile>
